<svg xmlns="http://www.w3.org/2000/svg" viewBox="0 0 64 64" role="img" aria-label="Map favicon">
  <defs>
    <linearGradient id="bg" x1="0" y1="0" x2="1" y2="1">
      <stop offset="0%" stop-color="#e6f2ff" />
      <stop offset="100%" stop-color="#c8ddff" />
    </linearGradient>
    <linearGradient id="pin" x1="0" y1="0" x2="0" y2="1">
      <stop offset="0%" stop-color="#2f66b3" />
      <stop offset="100%" stop-color="#1f4d8f" />
    </linearGradient>
  </defs>

  <rect x="4" y="4" width="56" height="56" rx="12" fill="url(#bg)" />

  <path d="M18 16v32M32 16v32M46 16v32M16 18h32M16 32h32M16 46h32"
        stroke="#a5c1ea"
        stroke-width="1.6"
        stroke-linecap="round"
        opacity="0.9" />

  <path d="M32 14c-7 0-12 5.2-12 11.8c0 8.9 12 23.6 12 23.6s12-14.7 12-23.6C44 19.2 39 14 32 14z"
        fill="url(#pin)" />
  <circle cx="32" cy="26" r="4.8" fill="#ffffff" />
  <circle cx="32" cy="26" r="2.2" fill="#2f66b3" />
</svg>
